#N canvas 743 19 1102 976 12;
#X obj 91 343 soundfiler;
#X obj 90 687 *~;
#X obj 145 687 *~;
#X obj 106 731 dac~;
#X floatatom 129 619 5 0 1 0 - - - 0;
#N canvas 0 50 450 250 (subpatch) 0;
#X array bit 5.04576e+06 float 2;
#X coords 0 1 5.04576e+06 -1 200 140 1;
#X restore 646 288 graph;
#X obj 92 400 receive music;
#X obj 91 450 bng 19 250 50 0 empty empty empty 0 -10 0 12 #fcfcfc #000000 #000000;
#X obj 218 448 bng 19 250 50 0 empty empty empty 0 -10 0 12 #fcfcfc #000000 #000000;
#X obj 563 22 loadbang;
#X msg 547 472 1;
#X text 658 685 ./obit.wav;
#X text 661 727 C:/Users/droso/Desktop/myheroquest/obit.wav;
#X obj 90 501 tabplay~ bit;
#X text 669 643 obit.wav;
#X text 664 669 /obit.wav;
#X text 662 707 myheroquest/obit.wav;
#X text 666 615 Paths that I tried;
#X msg 91 283 read -resize obit.wav bit;
#X connect 1 0 3 0;
#X connect 2 0 3 1;
#X connect 4 0 1 1;
#X connect 4 0 2 1;
#X connect 6 0 7 0;
#X connect 7 0 13 0;
#X connect 8 0 7 0;
#X connect 9 0 10 0;
#X connect 9 0 18 0;
#X connect 10 0 4 0;
#X connect 13 0 1 0;
#X connect 13 1 8 0;
#X connect 18 0 0 0;
